<svg id="Group_3" data-name="Group 3" xmlns="http://www.w3.org/2000/svg" width="175.389" height="121.997" viewBox="0 0 175.389 121.997">
  <path id="Path_11" data-name="Path 11" d="M7516.9,1373.169c-1.159,4.565-4.345,9.047-6.744,13.006-1.021,1.683-2.414,4.538-3.917,5.931-1.063,1.781-2.366,3.958-3.862,6.44-5.323,8.837-5.807,9.477-6.771,9.833-8.95,3.31-15.446-8.206-17.971-15.226a37.8,37.8,0,0,1-.428-23.9c1.387-4.6,4.9-9.949,6.73-13.006,1.661-2.773,3.155-5.013,4.225-6.561a44.238,44.238,0,0,0,.038,18.154,35.473,35.473,0,0,0,2.082,6.639c2.593,6.068,8.068,14.992,15.488,13.75,1.889-20.233-17.461-37.045-12.661-57.967,1.034-4.537,4.372-9.116,6.744-13.006.51-.841,5.365-7.5,5.158-6.62-5.116,22.343,17.612,40.037,11.889,62.531" transform="translate(-7342.439 -1310.557)" fill="#511156"/>
  <path id="Path_12" data-name="Path 12" d="M5663.951,1504.064c.008-.015.014-.029.021-.043-7.131-1.665-14.677,1.428-20.251,6.178s-9.6,11.012-13.822,17c-9.543,13.518-20.92,26.373-35.8,33.614s-33.884,7.829-47.146-2.066c-10.131-7.559-15.679-20.5-15.229-33.131.664-18.633,12.567-30.5,15.7-33.48,20.667-19.657,57.22-20.681,75.461-4.3,2.171,1.949,6.59,7.863,6.6,7.856s-4.04-5.2-6.6-7.856c-12.754-13.24-35.153-11.9-40.3-11.592-4.214.252-28.754,2.139-46.328,22.381-15.817,18.22-26.321,51.734-9.357,72.485,10.5,12.85,29.454,18.17,43.855,14.618,16.534-4.079,29.58-15.448,40.327-28.163,10.344-12.239,21.376-37.487,40.976-32.883,3.676.864,10.523-17.748,11.887-20.61" transform="translate(-5518.232 -1464.801)" fill="#511156"/>
  <g id="Group" transform="translate(20.438 38.988)">
    <text id="NABRA" transform="translate(0 20)" fill="#511155" font-size="23" font-family="TwCenMT-Regular, Tw Cen MT"><tspan x="0" y="0">NABRA</tspan></text>
    <text id="_E_Business_Solutions" data-name=" E Business Solutions" transform="translate(5.332 30.9)" fill="#511155" font-size="7" font-family="TwCenMT-Regular, Tw Cen MT"><tspan x="0" y="0" xml:space="preserve"> E Business Solutions</tspan></text>
  </g>
</svg>
